<mxfile host="app.diagrams.net" agent="Mozilla/5.0 (Windows NT 10.0; Win64; x64; rv:137.0) Gecko/20100101 Firefox/137.0" version="26.2.9">
  <diagram name="Page-1" id="nyElgQ6D1GIRIi8HI9qO">
    <mxGraphModel dx="1426" dy="786" grid="1" gridSize="10" guides="1" tooltips="1" connect="1" arrows="1" fold="1" page="1" pageScale="1" pageWidth="850" pageHeight="1100" math="0" shadow="0">
      <root>
        <mxCell id="0" />
        <mxCell id="1" parent="0" />
        <mxCell id="cFQAdNuOadjv9kk99wCG-1" value="Entity:a" style="shape=umlLifeline;perimeter=lifelinePerimeter;whiteSpace=wrap;html=1;container=1;dropTarget=0;collapsible=0;recursiveResize=0;outlineConnect=0;portConstraint=eastwest;newEdgeStyle={&quot;curved&quot;:0,&quot;rounded&quot;:0};" vertex="1" parent="1">
          <mxGeometry x="140" y="200" width="100" height="710" as="geometry" />
        </mxCell>
        <mxCell id="cFQAdNuOadjv9kk99wCG-6" value="" style="html=1;points=[[0,0,0,0,5],[0,1,0,0,-5],[1,0,0,0,5],[1,1,0,0,-5]];perimeter=orthogonalPerimeter;outlineConnect=0;targetShapes=umlLifeline;portConstraint=eastwest;newEdgeStyle={&quot;curved&quot;:0,&quot;rounded&quot;:0};" vertex="1" parent="cFQAdNuOadjv9kk99wCG-1">
          <mxGeometry x="45" y="60" width="10" height="600" as="geometry" />
        </mxCell>
        <mxCell id="cFQAdNuOadjv9kk99wCG-2" value="&lt;h1 style=&quot;margin-top: 0px;&quot;&gt;Attack sequence&lt;/h1&gt;&lt;p&gt;Describes what happens when an entity attacks, whether its shooting a gun (implementing the Shooting interface) or using a knife.&lt;/p&gt;&lt;p&gt;As before, the entity shoots in the sight direction. The attack is considered valid (enough ammo if shooting etc.)&lt;/p&gt;" style="text;html=1;whiteSpace=wrap;overflow=hidden;rounded=0;" vertex="1" parent="1">
          <mxGeometry x="90" y="70" width="720" height="90" as="geometry" />
        </mxCell>
        <mxCell id="cFQAdNuOadjv9kk99wCG-3" value="Map:map" style="shape=umlLifeline;perimeter=lifelinePerimeter;whiteSpace=wrap;html=1;container=1;dropTarget=0;collapsible=0;recursiveResize=0;outlineConnect=0;portConstraint=eastwest;newEdgeStyle={&quot;curved&quot;:0,&quot;rounded&quot;:0};" vertex="1" parent="1">
          <mxGeometry x="520" y="200" width="100" height="710" as="geometry" />
        </mxCell>
        <mxCell id="cFQAdNuOadjv9kk99wCG-38" value="checkNearEntityCollision()" style="html=1;align=left;spacingLeft=2;endArrow=block;rounded=0;edgeStyle=orthogonalEdgeStyle;curved=0;rounded=0;" edge="1" parent="cFQAdNuOadjv9kk99wCG-3" source="cFQAdNuOadjv9kk99wCG-36" target="cFQAdNuOadjv9kk99wCG-37">
          <mxGeometry x="-0.8182" y="15" relative="1" as="geometry">
            <mxPoint x="60" y="445" as="sourcePoint" />
            <Array as="points">
              <mxPoint x="80" y="445" />
              <mxPoint x="80" y="455" />
            </Array>
            <mxPoint as="offset" />
          </mxGeometry>
        </mxCell>
        <mxCell id="cFQAdNuOadjv9kk99wCG-36" value="" style="html=1;points=[[0,0,0,0,5],[0,1,0,0,-5],[1,0,0,0,5],[1,1,0,0,-5]];perimeter=orthogonalPerimeter;outlineConnect=0;targetShapes=umlLifeline;portConstraint=eastwest;newEdgeStyle={&quot;curved&quot;:0,&quot;rounded&quot;:0};" vertex="1" parent="cFQAdNuOadjv9kk99wCG-3">
          <mxGeometry x="45" y="430" width="10" height="120" as="geometry" />
        </mxCell>
        <mxCell id="cFQAdNuOadjv9kk99wCG-37" value="" style="html=1;points=[[0,0,0,0,5],[0,1,0,0,-5],[1,0,0,0,5],[1,1,0,0,-5]];perimeter=orthogonalPerimeter;outlineConnect=0;targetShapes=umlLifeline;portConstraint=eastwest;newEdgeStyle={&quot;curved&quot;:0,&quot;rounded&quot;:0};" vertex="1" parent="cFQAdNuOadjv9kk99wCG-3">
          <mxGeometry x="50" y="455" width="10" height="25" as="geometry" />
        </mxCell>
        <mxCell id="cFQAdNuOadjv9kk99wCG-4" value="attack()" style="html=1;verticalAlign=bottom;startArrow=oval;startFill=1;endArrow=block;startSize=8;curved=0;rounded=0;" edge="1" parent="1">
          <mxGeometry width="60" relative="1" as="geometry">
            <mxPoint x="50" y="260" as="sourcePoint" />
            <mxPoint x="185" y="260" as="targetPoint" />
          </mxGeometry>
        </mxCell>
        <mxCell id="cFQAdNuOadjv9kk99wCG-5" value="if a implements Shooting" style="shape=umlFrame;whiteSpace=wrap;html=1;pointerEvents=0;width=240;height=20;" vertex="1" parent="1">
          <mxGeometry x="140" y="280" width="490" height="320" as="geometry" />
        </mxCell>
        <mxCell id="cFQAdNuOadjv9kk99wCG-7" value="" style="html=1;points=[[0,0,0,0,5],[0,1,0,0,-5],[1,0,0,0,5],[1,1,0,0,-5]];perimeter=orthogonalPerimeter;outlineConnect=0;targetShapes=umlLifeline;portConstraint=eastwest;newEdgeStyle={&quot;curved&quot;:0,&quot;rounded&quot;:0};" vertex="1" parent="1">
          <mxGeometry x="565" y="310" width="10" height="120" as="geometry" />
        </mxCell>
        <mxCell id="cFQAdNuOadjv9kk99wCG-9" value="shoot(a)" style="html=1;verticalAlign=bottom;endArrow=block;curved=0;rounded=0;" edge="1" parent="1">
          <mxGeometry x="0.1622" width="80" relative="1" as="geometry">
            <mxPoint x="195" y="310" as="sourcePoint" />
            <mxPoint x="565" y="310" as="targetPoint" />
            <mxPoint as="offset" />
          </mxGeometry>
        </mxCell>
        <mxCell id="cFQAdNuOadjv9kk99wCG-11" value="" style="html=1;points=[[0,0,0,0,5],[0,1,0,0,-5],[1,0,0,0,5],[1,1,0,0,-5]];perimeter=orthogonalPerimeter;outlineConnect=0;targetShapes=umlLifeline;portConstraint=eastwest;newEdgeStyle={&quot;curved&quot;:0,&quot;rounded&quot;:0};" vertex="1" parent="1">
          <mxGeometry x="570" y="335" width="10" height="25" as="geometry" />
        </mxCell>
        <mxCell id="cFQAdNuOadjv9kk99wCG-12" value="checkInlineEntityCollision()" style="html=1;align=left;spacingLeft=2;endArrow=block;rounded=0;edgeStyle=orthogonalEdgeStyle;curved=0;rounded=0;" edge="1" target="cFQAdNuOadjv9kk99wCG-11" parent="1" source="cFQAdNuOadjv9kk99wCG-7">
          <mxGeometry x="-0.8182" y="15" relative="1" as="geometry">
            <mxPoint x="580" y="325" as="sourcePoint" />
            <Array as="points">
              <mxPoint x="600" y="325" />
              <mxPoint x="600" y="335" />
            </Array>
            <mxPoint as="offset" />
          </mxGeometry>
        </mxCell>
        <mxCell id="cFQAdNuOadjv9kk99wCG-14" value="if checkInlineEntityCollision() == true" style="shape=umlFrame;whiteSpace=wrap;html=1;pointerEvents=0;width=240;height=20;" vertex="1" parent="1">
          <mxGeometry x="160" y="370" width="440" height="120" as="geometry" />
        </mxCell>
        <mxCell id="cFQAdNuOadjv9kk99wCG-15" value="(Collision with entity)" style="text;html=1;align=center;verticalAlign=middle;whiteSpace=wrap;rounded=0;" vertex="1" parent="1">
          <mxGeometry x="400" y="370" width="145" height="20" as="geometry" />
        </mxCell>
        <mxCell id="cFQAdNuOadjv9kk99wCG-18" value="if checkInlineEntityCollision() == false" style="shape=umlFrame;whiteSpace=wrap;html=1;pointerEvents=0;width=240;height=20;" vertex="1" parent="1">
          <mxGeometry x="160" y="490" width="440" height="110" as="geometry" />
        </mxCell>
        <mxCell id="cFQAdNuOadjv9kk99wCG-19" value="(Collision with wall)" style="text;html=1;align=center;verticalAlign=middle;whiteSpace=wrap;rounded=0;" vertex="1" parent="1">
          <mxGeometry x="400" y="490" width="145" height="20" as="geometry" />
        </mxCell>
        <mxCell id="cFQAdNuOadjv9kk99wCG-25" value="Entity:b" style="shape=umlLifeline;perimeter=lifelinePerimeter;whiteSpace=wrap;html=1;container=1;dropTarget=0;collapsible=0;recursiveResize=0;outlineConnect=0;portConstraint=eastwest;newEdgeStyle={&quot;curved&quot;:0,&quot;rounded&quot;:0};" vertex="1" parent="1">
          <mxGeometry x="770" y="200" width="100" height="720" as="geometry" />
        </mxCell>
        <mxCell id="cFQAdNuOadjv9kk99wCG-27" value="" style="html=1;points=[[0,0,0,0,5],[0,1,0,0,-5],[1,0,0,0,5],[1,1,0,0,-5]];perimeter=orthogonalPerimeter;outlineConnect=0;targetShapes=umlLifeline;portConstraint=eastwest;newEdgeStyle={&quot;curved&quot;:0,&quot;rounded&quot;:0};" vertex="1" parent="cFQAdNuOadjv9kk99wCG-25">
          <mxGeometry x="45" y="190" width="10" height="80" as="geometry" />
        </mxCell>
        <mxCell id="cFQAdNuOadjv9kk99wCG-41" value="" style="html=1;points=[[0,0,0,0,5],[0,1,0,0,-5],[1,0,0,0,5],[1,1,0,0,-5]];perimeter=orthogonalPerimeter;outlineConnect=0;targetShapes=umlLifeline;portConstraint=eastwest;newEdgeStyle={&quot;curved&quot;:0,&quot;rounded&quot;:0};" vertex="1" parent="cFQAdNuOadjv9kk99wCG-25">
          <mxGeometry x="45" y="520" width="10" height="80" as="geometry" />
        </mxCell>
        <mxCell id="cFQAdNuOadjv9kk99wCG-26" value="hurt(amount: Int)" style="html=1;verticalAlign=bottom;endArrow=block;curved=0;rounded=0;" edge="1" parent="1" target="cFQAdNuOadjv9kk99wCG-27">
          <mxGeometry width="80" relative="1" as="geometry">
            <mxPoint x="575" y="389.66" as="sourcePoint" />
            <mxPoint x="889.5" y="389.66" as="targetPoint" />
          </mxGeometry>
        </mxCell>
        <mxCell id="cFQAdNuOadjv9kk99wCG-28" value="true" style="html=1;verticalAlign=bottom;endArrow=open;dashed=1;endSize=8;curved=0;rounded=0;" edge="1" parent="1">
          <mxGeometry relative="1" as="geometry">
            <mxPoint x="565" y="430" as="sourcePoint" />
            <mxPoint x="195" y="430" as="targetPoint" />
          </mxGeometry>
        </mxCell>
        <mxCell id="cFQAdNuOadjv9kk99wCG-29" value="" style="html=1;points=[[0,0,0,0,5],[0,1,0,0,-5],[1,0,0,0,5],[1,1,0,0,-5]];perimeter=orthogonalPerimeter;outlineConnect=0;targetShapes=umlLifeline;portConstraint=eastwest;newEdgeStyle={&quot;curved&quot;:0,&quot;rounded&quot;:0};" vertex="1" parent="1">
          <mxGeometry x="565" y="490" width="10" height="70" as="geometry" />
        </mxCell>
        <mxCell id="cFQAdNuOadjv9kk99wCG-30" value="false" style="html=1;verticalAlign=bottom;endArrow=open;dashed=1;endSize=8;curved=0;rounded=0;" edge="1" parent="1">
          <mxGeometry relative="1" as="geometry">
            <mxPoint x="565" y="549" as="sourcePoint" />
            <mxPoint x="195" y="549" as="targetPoint" />
          </mxGeometry>
        </mxCell>
        <mxCell id="cFQAdNuOadjv9kk99wCG-33" value="else if a implements Knife" style="shape=umlFrame;whiteSpace=wrap;html=1;pointerEvents=0;width=240;height=20;" vertex="1" parent="1">
          <mxGeometry x="140" y="600" width="490" height="320" as="geometry" />
        </mxCell>
        <mxCell id="cFQAdNuOadjv9kk99wCG-34" value="stab(a)" style="html=1;verticalAlign=bottom;endArrow=block;curved=0;rounded=0;" edge="1" parent="1">
          <mxGeometry x="0.1622" width="80" relative="1" as="geometry">
            <mxPoint x="195" y="630" as="sourcePoint" />
            <mxPoint x="565" y="630" as="targetPoint" />
            <mxPoint as="offset" />
          </mxGeometry>
        </mxCell>
        <mxCell id="cFQAdNuOadjv9kk99wCG-39" value="if checkNearEntityCollision() == true" style="shape=umlFrame;whiteSpace=wrap;html=1;pointerEvents=0;width=240;height=20;" vertex="1" parent="1">
          <mxGeometry x="160" y="690" width="440" height="100" as="geometry" />
        </mxCell>
        <mxCell id="cFQAdNuOadjv9kk99wCG-40" value="(Collision with entity)" style="text;html=1;align=center;verticalAlign=middle;whiteSpace=wrap;rounded=0;" vertex="1" parent="1">
          <mxGeometry x="400" y="690" width="145" height="20" as="geometry" />
        </mxCell>
        <mxCell id="cFQAdNuOadjv9kk99wCG-42" value="hurt(amount: Int)" style="html=1;verticalAlign=bottom;endArrow=block;curved=0;rounded=0;" edge="1" parent="1">
          <mxGeometry width="80" relative="1" as="geometry">
            <mxPoint x="575" y="720" as="sourcePoint" />
            <mxPoint x="815" y="720.3399999999999" as="targetPoint" />
            <mxPoint as="offset" />
          </mxGeometry>
        </mxCell>
        <mxCell id="cFQAdNuOadjv9kk99wCG-43" value="true" style="html=1;verticalAlign=bottom;endArrow=open;dashed=1;endSize=8;curved=0;rounded=0;" edge="1" parent="1">
          <mxGeometry relative="1" as="geometry">
            <mxPoint x="565" y="750" as="sourcePoint" />
            <mxPoint x="195" y="750" as="targetPoint" />
          </mxGeometry>
        </mxCell>
        <mxCell id="cFQAdNuOadjv9kk99wCG-44" value="if checkNearEntityCollision() == false" style="shape=umlFrame;whiteSpace=wrap;html=1;pointerEvents=0;width=230;height=20;" vertex="1" parent="1">
          <mxGeometry x="160" y="790" width="440" height="100" as="geometry" />
        </mxCell>
        <mxCell id="cFQAdNuOadjv9kk99wCG-45" value="(Collision with wall or nothing)" style="text;html=1;align=center;verticalAlign=middle;whiteSpace=wrap;rounded=0;" vertex="1" parent="1">
          <mxGeometry x="395" y="790" width="170" height="20" as="geometry" />
        </mxCell>
        <mxCell id="cFQAdNuOadjv9kk99wCG-46" value="" style="html=1;points=[[0,0,0,0,5],[0,1,0,0,-5],[1,0,0,0,5],[1,1,0,0,-5]];perimeter=orthogonalPerimeter;outlineConnect=0;targetShapes=umlLifeline;portConstraint=eastwest;newEdgeStyle={&quot;curved&quot;:0,&quot;rounded&quot;:0};" vertex="1" parent="1">
          <mxGeometry x="565" y="790" width="10" height="70" as="geometry" />
        </mxCell>
        <mxCell id="cFQAdNuOadjv9kk99wCG-47" value="false" style="html=1;verticalAlign=bottom;endArrow=open;dashed=1;endSize=8;curved=0;rounded=0;" edge="1" parent="1">
          <mxGeometry relative="1" as="geometry">
            <mxPoint x="565" y="839.66" as="sourcePoint" />
            <mxPoint x="195" y="839.66" as="targetPoint" />
          </mxGeometry>
        </mxCell>
      </root>
    </mxGraphModel>
  </diagram>
</mxfile>
